<?xml version="1.0" encoding="UTF-8"?>
<svg id="Capa_18" data-name="Capa 18" xmlns="http://www.w3.org/2000/svg" viewBox="0 0 1080 1080">
  <path d="M1008.21,318.29c-26.41-87.99-104.22-184.44-250.1-190.35-136.59-5.53-206.07,86.66-218.11,104.34-12.04-17.69-81.52-109.88-218.11-104.34-145.88,5.91-223.69,102.37-250.1,190.35-30.34,101.08,9.97,183.65,9.97,183.65,144.83,337.81,458.22,475.16,458.22,475.16,0,0,271.8-114.89,458.25-475.16,0,0,40.32-82.57,9.97-183.65ZM593.99,519.55l-7.38,245.24c-1,33.18-23.51,53.66-55.47,53.01-25.66-.53-46.23-12.64-52.05-37.88-3.91-16.94-3.65-34.56-3.49-52.84l1.81-202.69c.16-18.05,5.94-37.51,20.78-47.99,22.22-15.69,55.81-16.2,78.44-.5,12.49,8.67,17.83,28.01,17.36,43.65ZM596.55,404.06c-20.68,37.03-82.61,40.06-108.53,8.18-13.69-16.85-13.82-40.3-4.59-59.72,8.91-18.75,28.72-30.15,51.77-31.45,23.31-1.32,47.4,5.68,60.27,26.08,10.47,16.6,11.06,39.05,1.08,56.92Z"/>
</svg>