<?xml version="1.0" encoding="UTF-8"?>
<svg id="Capa_18" data-name="Capa 18" xmlns="http://www.w3.org/2000/svg" viewBox="0 0 1080 1080">
  <path d="M710.44,726.25c-14.1-2.65-23.73,23.46-17.79,37.94,1.25,3.05,4.27,5.65,6.61,6.34,9.72,2.87,17.18-9.04,19.7-19.96,2.36-10.23-.11-22.73-8.52-24.32Z"/>
  <path d="M747.97,669.32c4.38,2.14,9.05,1.63,13.49-1.33,12.14-8.09,16.49-28.17,6.43-34.44-3.78-2.36-8.74-2.77-12.94-.52-9.16,4.9-14.82,15.54-13.96,25.82.41,4.95,3.38,8.72,6.98,10.48Z"/>
  <path d="M634.46,710.35c-5.16-.78-10.21,1.01-13.92,4.83-9.62,9.89-10.99,27.34-1.53,32.7,8.07,4.57,17.55-.69,21.48-10.3,4.31-10.53,5.58-25.47-6.03-27.23Z"/>
  <path d="M363.23,767.36c.21,4.89,4.23,8.36,9.46,7.26,10.24-2.16,16.11-12.83,12.94-22.48-9.88-.73-22.77,6.46-22.39,15.21Z"/>
  <path d="M502,591.68c-.5-2.74-2.9-5.04-6.19-5.49-9.76-1.35-18.04,8.62-17.44,19.42,9.96-.89,25.16-5.47,23.63-13.93Z"/>
  <path d="M1009.4,328.22c-26.52-87.99-104.66-184.44-251.15-190.35-137.16-5.53-206.93,86.66-219.02,104.34-12.09-17.69-81.86-109.88-219.02-104.34-146.49,5.91-224.63,102.37-251.15,190.35-30.47,101.08,10.01,183.65,10.01,183.65,0,0,61.85,7.66,108.31-8.49,31.35-10.9,61.14-22.58,81.07-48.14,32.96-42.29-43.09-136.16-2.93-161.16,32.43-20.2,156.59,3.34,156.59,154.47,0,77.93-79.15,113.52-154.8,147.59-43.44,19.56-76.6,64.95-76.6,123.88,0,187.31,348.5,267.02,348.5,267.02,0,0,351.2-78.16,351.2-267.02,0-49.83-25.58-100.4-78.98-125.05-75.34-34.76-155.08-68.49-155.08-146.42,0-151.12,124.16-174.67,156.59-154.47,40.16,25.01-35.9,118.88-2.93,161.16,19.93,25.57,50.11,36.19,81.07,48.14,41.84,16.16,108.31,8.49,108.31,8.49,0,0,40.49-82.57,10.01-183.65ZM568.26,620.57c-6.16-5.63-16.05-7.69-24.25-15.34-6.83-6.37-9.03-15.66-5.67-24.53,6.51-17.22,31.57-21.51,49.33-10.5,2.24,1.39,4.14,3.85,5.08,6.09,1.64,3.92.51,8.2-2.5,10.75-2.85,2.41-7.25,2.79-10.91.69-4.42-2.53-8.96-5.07-14.29-3.8-1.71.41-3.59,2.11-4,3.43-.56,1.8.24,4.63,1.93,5.64l6.65,3.95c4.89,2.91,10,5.05,14.64,8.33,6.88,4.87,11.09,12.58,10.56,20.89-.51,7.91-4.48,15.35-12.27,19.84-18.79,10.84-47.75,2.2-48.2-13.17-.13-4.43,2.2-8.01,5.81-9.55,3.7-1.58,7.8-.73,10.91,2.16,7.03,6.53,15.98,7.23,18.5,2.2,1.01-2.01.51-5.42-1.31-7.08ZM557.54,679.91c-3.12-4.27-2.85-9.98-.35-14.59,2.41-4.45,7.37-6.97,13-6.99,5.69-.02,11.46,1.99,14.33,7.11,2.34,4.17,2.19,9.64-.46,13.86-5.5,8.74-20.61,8.69-26.51.6ZM581.94,707.37l-4.93,59.57c-.67,8.06-6.41,12.75-14.17,12.19-6.24-.46-11.08-3.67-12.18-9.88-.74-4.17-.45-8.45-.17-12.9l3.03-49.29c.27-4.39,1.92-9.05,5.67-11.41,5.61-3.53,13.78-3.23,19.09.88,2.93,2.27,3.98,7.04,3.67,10.84ZM458.88,590.21c8.09-18.95,29.42-28.45,48.73-21.22,14.07,5.27,20.83,21.89,12.99,33.85-8.46,12.92-24.99,16.55-39.78,18.49,1.69,5.98,6.31,9.76,12.16,10.69,6.58,1.05,13.07-1.38,17.8-6.43,3.15-3.37,7.3-4.93,11.37-3.22,3.69,1.55,6.47,5.76,5.85,10.33-.6,4.4-3.34,8.15-6.82,11.16-8.76,7.6-20.48,10.75-32.17,9.62-12.57-1.21-23.21-8.57-28.69-19.87-6.66-13.73-7.42-29.38-1.44-43.39ZM376.07,591.79c3.49-.97,7.08-1.57,10.67.58,2.17,1.3,4.41,4.36,5.18,7.8,2.14,9.65,4.12,18.97,6.79,28.51,2.17,7.77,6.36,15.88,13.6,14.78,8.39-1.27,10.29-12.8,8.21-20.92l-6.73-26.22c-1-3.89-1.45-8.36,1.09-11.73,3.65-4.85,11.07-6.62,16.56-4.12,3.93,1.79,5.6,5.77,6.52,9.74,3.2,13.71,6.21,27.01,10.29,40.46,3.21,10.56,10.45,13.23,7.81,21.98-1.04,3.46-4,6.23-7.84,7.58-6.98,2.47-13.4-.55-16.46-8.11-3.78,7.26-9.08,12.67-16.43,15.6-10,3.98-20.87,1.61-27.95-6.62-4.52-5.25-7.61-11.33-9.85-18.07-4.02-12.14-7.75-24.23-10.34-37.1-1.46-7.23,2.78-12.43,8.88-14.13ZM327.62,632.65c-5.8.33-9.85,5.47-10.17,11.42-.26,4.95.99,9.59,3.04,13.88l12.14,25.47c3.37,7.07-.36,13.52-7.01,16.29-6.28,2.62-13.14,1.27-16.2-5.48l-16.01-35.34-8.92-18.38c-2.48-5.1-2.21-11.3,1.44-15.46,3.38-3.85,8.98-6.72,14.31-4.62,2.47.97,3.79,3.73,5.38,6.37,2.65-9.54,9.72-16.79,19.26-19.79,8.88-2.79,18.12-.28,24.59,6.48,4.93,5.16,8.34,11.21,11.29,17.86l15.34,34.56c3.18,7.15-1.26,13.98-7.9,16.11-6.04,1.93-11.89.41-14.91-5.52-5.88-11.53-8.55-24.9-16.47-37.96-1.95-3.22-5.32-6.1-9.2-5.88ZM393.77,780.75c-10.92,14.26-27.67,21.84-43.86,12.07-12.38-9.31-14.68-26.26-6.13-38.85,8.65-12.72,24.21-18.05,39.39-19.57-.54-3.42-1.08-6.77-2.22-9.57-2.15-5.28-8.13-7.04-13.14-5.13-4.14,1.58-7.61,4.08-9.83,7.91-2.15,3.73-5.46,6.57-9.96,6.97-6.06.54-11.12-4.07-10.97-10.41.09-3.76,1.63-7.75,4.01-10.91,8.6-11.4,22.06-18.31,36.45-18.01,9.55.2,18.12,4.58,23.15,12.49,4.03,6.33,5.64,13.45,6.7,20.86l4.3,30.22c.73,5.13,3.63,8.61,6.74,12.39,4.67,5.67,1.43,14.1-4.66,17.27-7.86,4.1-16.67,1.17-19.98-7.75ZM490.09,821.93c-2.27,3.35-5.87,5.13-9.34,5.25-3.91.13-7.03-1.85-9.69-4.75-2.9-3.16-7.28-4.16-11.25-2.87-8.14,2.65-7.26,13.53-5.26,22.78l21.21-2.79c5.37-.71,9.67,2.78,11.04,7.77,1.15,4.16.63,8.2-1.16,12.24-1.85,2.07-4.56,3.87-7.43,4.23l-18.29,2.32,9.44,36.15c1.26,4.81,1.53,10.34-1.7,13.97-4.36,4.88-12.23,6.1-18.19,3.72-4.05-1.62-6.4-5.63-7.35-9.79l-8.97-39.4-8.39.95c-5.6.63-9.67-3.28-11.09-8.34-1.53-5.44-.15-11.69,5.43-14.09l9.36-2.53c-.98-5.72-2.14-11.46-1.96-17.2.56-18.26,13.44-32.19,31.27-34.6,10.16-1.37,20.48.42,28.35,7.11,5.92,5.03,8.3,13.5,3.98,19.88ZM527.68,902.37c-.01,4.37-1.55,8.31-3.91,10.6-2.86,2.77-6.54,3.6-10.7,3.52-6.53-.12-12.31-4.73-12.41-12.03l-.86-59.29c-.06-4.05,1.47-8.39,4.74-10.63,5.63-3.87,13.66-4.03,19.19-.02,3.21,2.33,4.11,6.7,4.1,10.66l-.14,57.19ZM525.74,820.77c-5.74,5.27-15.26,5.45-21.27.95-6.24-4.67-6.51-14.89-.85-20.13,6.05-5.6,16.35-5.65,22.39-.08,5.25,4.84,5.22,14.22-.27,19.26ZM533.18,775c-4.89,2.67-11.63,2.5-15.81-1.21-3.35-2.97-3.89-7.88-3.79-12.19l.73-28.81c.2-7.91-1.59-19.7-8.14-20.93-8.55-1.6-13.38,9.6-13.05,19.16l1.07,31.21c.13,3.89-.41,8-2.74,10.99-2.34,3.01-6.11,3.53-9.72,3.78-6.81.46-12.09-3.97-12.34-11.09l-1.1-30.49c-.28-7.8-1.9-18.74-7.67-20.82-2.26-.81-5.61-.2-7.51,1.37-6.11,5.06-6.28,16.06-5.31,24.66l2.9,25.71c.38,3.36-.07,7.81-2.19,10.54-4.11,5.29-12.59,6.4-17.97,2.5-2.89-2.09-4.34-6.02-4.79-9.61l-8.11-63.7c-.63-4.94.17-10.05,3.55-13.53,4.21-4.33,11.73-5.71,16.97-2.66,3.1,1.81,3.78,5.51,5.16,9.25,6.44-10.19,17.87-15.54,29.43-11.67,5.69,1.91,9.71,6.26,13.07,11.8,5.09-7.57,11.93-13.06,20.89-14.75,12.91-2.44,24.87,4.64,29.24,17.1,2.12,6.05,3.08,12.53,3.09,19.14l.07,43.12c0,4.47-2.15,9.03-5.94,11.1ZM578.08,894.27c11.69-1.11,15.37-13.1,24.62-7.41,3.5,2.16,5.25,6.78,4,11.24-3.72,13.27-24.43,20.55-39.74,17.71-12.74-2.36-22.65-10.6-26.99-22.97-8.99-25.61,2.2-59.03,28.67-66.82,10.85-3.19,22.47-1.87,31.32,4.92,12.1,9.27,12.8,26.42,2.1,36.97-10.96,10.21-25.49,12.45-40.36,12.65.61,8.5,7.7,14.55,16.38,13.72ZM657.01,829.84l-7.32,29.35-10.1,49.34c-1.45,7.06-6.55,11.16-13.94,10.33-5.93-.67-10.56-4.49-10.7-10.58l.87-10.95,12.54-65.96c.85-4.49,1.64-9.58,5.02-12.79,5.49-5.2,15.04-4.54,20.61.28,2.97,2.56,3.92,7.34,3.01,10.98ZM635.6,804.14c-18.87,8.34-45.73.23-48.71-15.01-.99-5.07,1.84-9.67,5.58-11.5,4.5-2.2,9.28-1.03,12.7,2.69,6.07,6.6,16.54,8.63,23.69,2.64,5.34-4.47,7.45-11.59,7.96-18.11-8.91,6.77-19.29,8.67-29.95,4.63-23.06-8.75-24.72-43.99-8.71-64.88,11.88-15.5,34.78-22.79,50.12-9.36,1.18-5.8,5.99-8.8,11.63-8.7,3.59.06,7.23,1.24,9.56,3.66,2.41,2.5,3.88,6.44,3.16,10.33l-9.97,53.99c-3.55,19.2-7.63,41.03-27.06,49.61ZM705.28,794.15c-14.42,2.22-27.28-6.14-32.69-19.13-8.56-20.52-1.8-49.33,14.37-64.18,7.72-7.09,17.82-10,28.31-7.82,9.07,1.88,17.44,8.28,21.78,17.58,12.75,27.31-3.95,69.26-31.77,73.55ZM759.88,609.42c11.43.19,22.25,5.57,29.47,14.27,15.29,18.42,6.73,49.13-14.59,62.67-16.46,10.45-37.66,7.15-49.7-7.66-6.1-7.5-8.28-17.07-7.31-26.78,2.14-21.47,20.06-42.88,42.14-42.51ZM671.78,593.2c.69-3.19,2.09-6.45,4.73-8.37,5.37-3.91,13.45-2.58,17.22,2.87,2.14,3.09,1.27,6.78.48,10.74,5.44-4.83,12.12-7.83,19.11-6.18,5.92,1.4,10.49,5.3,11.79,10.59,1.42,5.73-.51,11.87-5.2,15.38-3.23,2.42-7.32,2.15-10.5-.26-4.37-3.3-9.77-3.26-14.16,1.08-3.83,3.78-6.07,9.27-7.21,14.58l-4.69,21.8c-1.49,6.9-7.39,10.01-13.98,8.86-6.6-1.15-11.44-6.47-9.95-13.48l4.12-19.35,8.25-38.27ZM661.08,589.93c-.84,4.95-4.53,9.59-9.91,8.73l-12.43-2-5.08,22.45c-.67,2.97-.65,6.29-.51,9.26.22,4.43,3.7,7.33,8.36,7.07,5.19-.29,8.8,2.98,8.7,7.94-.12,6.08-4.21,10.88-10.2,12.52-12.66,3.46-28.64-2.83-31.11-17.51-.99-5.88-1.08-11.94.19-17.88l5.94-27.78c-3.46-.4-7.11-.73-9.01-3.66-2.93-4.51-1.77-11.62,2.51-14.86,3.28-2.49,7.02-2,11.41-1.24l2.07-7.71c1.97-7.34,8.74-10.53,15.9-8.57,5.83,1.59,9.53,6.38,7.97,12.67l-1.86,7.5,10.49,2.23c5.12,1.09,7.4,5.89,6.56,10.86Z"/>
  <path d="M579.9,845.11c-9.33-.58-16.69,8.75-17.82,18.37,11.45,1.06,27.34-4.16,24.58-13.49-.83-2.8-3.44-4.67-6.75-4.87Z"/>
</svg>