<?xml version="1.0" encoding="UTF-8"?>
<svg id="logo" xmlns="http://www.w3.org/2000/svg" viewBox="0 0 1080 1080">
  <path d="M1009.4,328.22c-26.52-87.99-104.66-184.44-251.15-190.35-137.16-5.53-206.93,86.66-219.02,104.34-12.09-17.69-81.86-109.88-219.02-104.34-146.49,5.91-224.63,102.37-251.15,190.35-30.47,101.08,10.01,183.65,10.01,183.65,0,0,61.85,7.66,108.31-8.49,31.35-10.9,61.14-22.58,81.07-48.14,32.96-42.29-43.09-136.16-2.93-161.16,32.43-20.2,156.59,3.34,156.59,154.47,0,77.93-79.15,113.52-154.8,147.59-43.44,19.56-76.6,64.95-76.6,123.88,0,187.31,348.5,267.02,348.5,267.02,0,0,351.2-78.16,351.2-267.02,0-49.83-25.58-100.4-78.98-125.05-75.34-34.76-155.08-68.49-155.08-146.42,0-151.12,124.16-174.67,156.59-154.47,40.16,25.01-35.9,118.88-2.93,161.16,19.93,25.57,50.11,36.19,81.07,48.14,41.84,16.16,108.31,8.49,108.31,8.49,0,0,40.49-82.57,10.01-183.65Z"/>
</svg>