<?xml version="1.0" encoding="UTF-8"?>
<svg id="Capa_18" data-name="Capa 18" xmlns="http://www.w3.org/2000/svg" viewBox="0 0 1080 1080">
  <defs>
    <style>
      .cls-1 {
        fill: #fff;
      }
    </style>
  </defs>
  <g>
    <path class="cls-1" d="M193.99,433.11c-.42,8,1.6,15.49,4.9,22.42l19.61,41.13c5.45,11.42-.59,21.84-11.32,26.32-10.14,4.23-21.22,2.05-26.16-8.85l-25.86-57.08-14.41-29.68c-4-8.23-3.57-18.25,2.32-24.97,5.46-6.22,14.51-10.86,23.11-7.47,3.99,1.57,6.12,6.03,8.68,10.28,4.28-15.41,15.69-27.11,31.11-31.96,14.34-4.51,29.26-.46,39.71,10.47,7.97,8.33,13.47,18.11,18.24,28.84l24.78,55.81c5.13,11.55-2.03,22.58-12.76,26.02-9.76,3.12-19.2.66-24.08-8.92-9.49-18.62-13.81-40.22-26.6-61.31-3.16-5.2-8.59-9.85-14.86-9.49-9.37.53-15.91,8.84-16.42,18.45Z"/>
    <path class="cls-1" d="M274.31,371.49c-2.35-11.68,4.49-20.08,14.34-22.82,5.64-1.57,11.44-2.53,17.24.94,3.5,2.09,7.13,7.04,8.36,12.6,3.45,15.59,6.65,30.63,10.96,46.04,3.51,12.55,10.28,25.64,21.96,23.87,13.55-2.05,16.62-20.68,13.26-33.79l-10.86-42.35c-1.61-6.28-2.33-13.5,1.76-18.94,5.89-7.83,17.88-10.69,26.75-6.65,6.35,2.89,9.04,9.32,10.54,15.72,5.17,22.15,10.03,43.63,16.62,65.34,5.18,17.05,16.87,21.36,12.62,35.5-1.68,5.58-6.47,10.06-12.67,12.25-11.27,3.98-21.63-.89-26.59-13.1-6.1,11.72-14.66,20.46-26.54,25.19-16.15,6.43-33.7,2.6-45.14-10.68-7.3-8.48-12.3-18.3-15.91-29.19-6.5-19.61-12.52-39.14-16.7-59.92Z"/>
    <path class="cls-1" d="M506.2,403.25c5.09-5.44,11.79-7.97,18.37-5.21,5.95,2.5,10.44,9.31,9.45,16.68s-5.39,13.16-11.01,18.03c-14.15,12.27-33.07,17.35-51.95,15.53-20.29-1.96-37.49-13.85-46.34-32.1-10.76-22.18-11.98-47.45-2.33-70.07,13.06-30.61,47.51-45.95,78.69-34.28,22.73,8.51,33.64,35.35,20.99,54.67-13.67,20.86-40.35,26.72-64.25,29.87,2.73,9.67,10.2,15.77,19.64,17.27,10.62,1.69,21.11-2.23,28.75-10.39ZM492.03,348.48c-.8-4.43-4.68-8.13-9.99-8.87-15.76-2.18-29.14,13.92-28.17,31.36,16.09-1.44,40.63-8.83,38.16-22.49Z"/>
    <path class="cls-1" d="M932.55,501.4c-26.58,16.88-60.81,11.55-80.27-12.37-9.85-12.11-13.38-27.56-11.81-43.25,3.46-34.68,32.4-69.25,68.05-68.65,18.45.31,35.94,9,47.6,23.05,24.7,29.75,10.88,79.34-23.57,101.21ZM911.07,471.72c19.61-13.07,26.63-45.5,10.38-55.63-6.1-3.8-14.11-4.48-20.89-.85-14.79,7.91-23.93,25.09-22.54,41.71.67,7.99,5.46,14.08,11.27,16.92,7.07,3.46,14.61,2.63,21.79-2.16Z"/>
    <path class="cls-1" d="M622.12,436.24c-30.34,17.51-77.11,3.55-77.85-21.27-.21-7.16,3.55-12.94,9.39-15.43,5.98-2.55,12.6-1.18,17.62,3.49,11.36,10.55,25.8,11.67,29.87,3.56,1.63-3.25.83-8.75-2.12-11.44-9.95-9.09-25.91-12.42-39.17-24.77-11.04-10.29-14.58-25.29-9.16-39.62,10.51-27.81,50.98-34.73,79.67-16.96,3.61,2.24,6.69,6.21,8.2,9.83,2.64,6.33.83,13.25-4.03,17.36-4.61,3.9-11.71,4.5-17.62,1.12-7.14-4.08-14.47-8.18-23.08-6.14-2.77.66-5.8,3.41-6.46,5.54-.9,2.91.38,7.48,3.12,9.11l10.73,6.38c7.9,4.69,16.15,8.15,23.65,13.46,11.12,7.86,17.92,20.32,17.05,33.73-.83,12.78-7.23,24.79-19.81,32.05Z"/>
    <path class="cls-1" d="M717.35,419.13c8.39-.47,14.21,4.82,14.05,12.83-.2,9.82-6.8,17.57-16.47,20.22-20.45,5.59-46.25-4.57-50.24-28.29-1.6-9.5-1.74-19.28.31-28.88l9.59-44.86c-5.59-.65-11.49-1.19-14.55-5.92-4.73-7.29-2.85-18.76,4.05-24,5.29-4.02,11.34-3.23,18.42-2l3.34-12.46c3.18-11.85,14.11-17.01,25.68-13.84,9.42,2.57,15.38,10.3,12.87,20.46l-3,12.11,16.94,3.61c8.27,1.76,11.96,9.52,10.59,17.54s-7.31,15.49-16,14.09l-20.08-3.23-8.2,36.26c-1.08,4.79-1.05,10.15-.82,14.95.35,7.15,5.98,11.84,13.51,11.41Z"/>
    <path class="cls-1" d="M804.12,392.69c-6.18,6.11-9.8,14.97-11.64,23.55l-7.58,35.21c-2.4,11.15-11.94,16.17-22.58,14.31-10.66-1.86-18.47-10.45-16.06-21.77l6.65-31.25,13.32-61.8c1.11-5.14,3.38-10.42,7.64-13.52,8.67-6.31,21.73-4.17,27.81,4.64,3.45,4.99,2.04,10.95.77,17.34,8.79-7.8,19.57-12.65,30.86-9.98,9.57,2.26,16.93,8.56,19.05,17.1,2.29,9.25-.83,19.17-8.39,24.84-5.22,3.91-11.83,3.46-16.96-.42-7.06-5.33-15.78-5.26-22.87,1.74Z"/>
  </g>
  <path class="cls-1" d="M437.59,580.66c-.45-12.6-3.06-30.26-12.38-33.62-3.65-1.31-9.06-.33-12.13,2.22-9.87,8.18-10.15,25.93-8.58,39.83l4.69,41.52c.61,5.43-.11,12.62-3.53,17.02-6.65,8.55-20.33,10.33-29.03,4.04-4.66-3.37-7-9.73-7.74-15.52l-13.1-102.87c-1.02-7.98.27-16.23,5.74-21.84,6.8-6.99,18.95-9.22,27.4-4.29,5.01,2.92,6.1,8.9,8.34,14.94,10.4-16.46,28.87-25.1,47.53-18.85,9.19,3.08,15.68,10.11,21.11,19.06,8.22-12.23,19.27-21.09,33.75-23.82,20.85-3.94,40.17,7.49,47.22,27.62,3.42,9.77,4.98,20.23,4.99,30.91l.12,69.64c.01,7.22-3.47,14.58-9.6,17.92-7.9,4.32-18.78,4.04-25.53-1.95-5.41-4.79-6.29-12.73-6.11-19.69l1.17-46.53c.32-12.78-2.57-31.82-13.15-33.8-13.81-2.58-21.6,15.51-21.07,30.95l1.73,50.41c.22,6.29-.66,12.92-4.43,17.75s-9.86,5.71-15.69,6.1c-11,.75-19.52-6.42-19.93-17.91l-1.77-49.24Z"/>
  <path class="cls-1" d="M629.12,667.38c-1.61-8.19,2.97-15.62,9.01-18.58,7.26-3.56,14.98-1.66,20.51,4.35,9.8,10.66,26.71,13.94,38.25,4.26,8.62-7.23,12.03-18.72,12.86-29.24-14.39,10.94-31.15,14-48.37,7.47-37.24-14.12-39.93-71.04-14.06-104.78,19.19-25.04,56.17-36.8,80.95-15.11,1.91-9.36,9.67-14.21,18.78-14.05,5.8.1,11.68,2,15.44,5.91s6.27,10.4,5.11,16.69l-16.11,87.2c-5.73,31-12.32,66.26-43.7,80.12s-73.85.37-78.67-24.24ZM715.68,584.12c6.95-17.01,9.02-41.14-9.73-43.98-8.33-1.26-16.49,1.63-22.48,7.8-15.53,15.98-17.76,44.16-2.48,52.82,13.03,7.39,28.35-1.11,34.69-16.64Z"/>
  <path class="cls-1" d="M439.31,850.06c2.03,7.78,2.47,16.7-2.75,22.55-7.04,7.88-19.75,9.86-29.38,6-6.53-2.61-10.34-9.09-11.87-15.8l-14.49-63.63-13.55,1.53c-9.04,1.02-15.62-5.3-17.92-13.47-2.46-8.78-.25-18.88,8.78-22.75l15.12-4.09c-1.59-9.24-3.46-18.5-3.17-27.77.91-29.48,21.7-51.99,50.49-55.88,16.41-2.22,33.07.68,45.79,11.48,9.57,8.12,13.4,21.8,6.43,32.11-3.66,5.42-9.49,8.29-15.08,8.48-6.31.21-11.36-3-15.65-7.67-4.68-5.1-11.76-6.72-18.18-4.64-13.15,4.27-11.73,21.85-8.49,36.78l34.26-4.5c8.68-1.14,15.62,4.49,17.83,12.54,1.85,6.72,1.02,13.25-1.87,19.77-2.99,3.35-7.36,6.24-12,6.83l-29.54,3.74,15.24,58.39Z"/>
  <path class="cls-1" d="M691.72,876.89c-9.57-1.08-17.05-7.26-17.27-17.09l1.41-17.68,20.25-106.53c1.38-7.24,2.64-15.48,8.1-20.65,8.87-8.4,24.28-7.34,33.29.44,4.79,4.14,6.33,11.86,4.86,17.73l-11.82,47.39-16.32,79.69c-2.34,11.4-10.58,18.03-22.51,16.69Z"/>
  <path class="cls-1" d="M590.3,651.21c-10.07-.74-17.9-5.92-19.67-15.95-1.19-6.74-.72-13.65-.28-20.83l4.89-79.6c.44-7.09,3.11-14.62,9.15-18.43,9.05-5.7,22.26-5.22,30.83,1.42,4.73,3.66,6.43,11.37,5.92,17.51l-7.95,96.2c-1.08,13.02-10.34,20.6-22.89,19.68Z"/>
  <path class="cls-1" d="M533.51,850.26c-.02,7.06-2.5,13.42-6.31,17.12-4.61,4.48-10.56,5.81-17.28,5.69-10.55-.19-19.87-7.65-20.04-19.44l-1.39-95.75c-.1-6.54,2.38-13.55,7.65-17.17,9.09-6.25,22.06-6.51,30.99-.04,5.19,3.76,6.63,10.83,6.62,17.22l-.23,92.36Z"/>
  <path class="cls-1" d="M624.53,490c-8.89,14.12-33.28,14.04-42.81.97-5.03-6.9-4.6-16.12-.57-23.56,3.89-7.18,11.91-11.25,20.99-11.29,9.19-.04,18.5,3.21,23.14,11.49,3.77,6.74,3.54,15.57-.75,22.39Z"/>
  <path class="cls-1" d="M530.37,718.47c-9.27,8.5-24.65,8.79-34.34,1.54s-10.51-24.05-1.38-32.5c9.77-9.04,26.4-9.13,36.16-.13,8.47,7.81,8.42,22.96-.44,31.1Z"/>
  <path class="cls-1" d="M614.89,837.17c18.87-1.8,24.83-21.15,39.77-11.96,5.66,3.48,8.48,10.95,6.47,18.15-6.01,21.44-39.45,33.18-64.19,28.6-20.57-3.81-36.57-17.12-43.59-37.1-14.52-41.35,3.55-95.34,46.3-107.92,17.52-5.16,36.29-3.01,50.58,7.94,19.53,14.96,20.67,42.67,3.4,59.71-17.7,16.49-41.16,20.11-65.18,20.42.99,13.72,12.44,23.5,26.45,22.16ZM628.74,765.66c-1.34-4.53-5.56-7.54-10.91-7.87-15.06-.94-26.96,14.13-28.79,29.66,18.49,1.71,44.15-6.72,39.69-21.79Z"/>
  <path class="cls-1" d="M820.32,675.48c-23.29,3.59-44.05-9.91-52.8-30.89-13.82-33.14-2.9-79.67,23.21-103.65,12.46-11.44,28.79-16.15,45.72-12.63,14.65,3.04,28.17,13.37,35.18,28.39,20.59,44.1-6.38,111.86-51.31,118.78ZM842.42,605.09c3.82-16.51-.18-36.72-13.77-39.27-22.77-4.29-38.33,37.89-28.72,61.27,2.02,4.92,6.9,9.12,10.67,10.24,15.69,4.64,27.74-14.61,31.82-32.24Z"/>
  <path class="cls-1" d="M246.4,673.33c-19.99-15.04-23.72-42.41-9.9-62.74,13.97-20.55,39.1-29.16,63.61-31.6-.87-5.52-1.74-10.93-3.58-15.46-3.46-8.53-13.14-11.38-21.23-8.28-6.69,2.56-12.29,6.59-15.87,12.78-3.48,6.02-8.83,10.6-16.08,11.25-9.79.87-17.96-6.58-17.72-16.81.14-6.08,2.63-12.51,6.48-17.62,13.88-18.42,35.63-29.57,58.87-29.09,15.42.32,29.27,7.4,37.39,20.17,6.51,10.23,9.11,21.73,10.81,33.69l6.95,48.8c1.18,8.28,5.85,13.9,10.89,20.02,7.54,9.16,2.31,22.77-7.53,27.9-12.7,6.62-26.91,1.9-32.26-12.51-17.64,23.04-44.69,35.28-70.83,19.5ZM283.17,643.93c16.54-3.48,26.02-20.72,20.89-36.3-15.96-1.18-36.78,10.43-36.16,24.57.34,7.9,6.83,13.5,15.27,11.73Z"/>
</svg>